<svg xmlns="http://www.w3.org/2000/svg" xml:space="preserve" id="Cart" x="0" y="0" version="1.1" viewBox="0 0 64 64">
  <path d="M20 64c-3.86 0-7-3.14-7-7s3.14-7 7-7 7 3.14 7 7-3.14 7-7 7zm0-12c-2.757 0-5 2.243-5 5s2.243 5 5 5 5-2.243 5-5-2.243-5-5-5zM44 64c-3.86 0-7-3.14-7-7s3.14-7 7-7 7 3.14 7 7-3.14 7-7 7zm0-12c-2.757 0-5 2.243-5 5s2.243 5 5 5 5-2.243 5-5-2.243-5-5-5z" fill="#4c4c4c" class="color000000 svgShape"></path>
  <path d="M26 56h12v2H26zM13.002 57.073 9.07 3H0V1h10.93l4.068 55.927z" fill="#4c4c4c" class="color000000 svgShape"></path>
  <path d="M13.07 43.998l-.14-1.996 42.264-2.948L61.74 11H11V9h53.26l-7.454 31.946z" fill="#4c4c4c" class="color000000 svgShape"></path>
</svg>
