<svg xmlns="http://www.w3.org/2000/svg" viewBox="0 0 16 16" id="Menu">
  <path d="M4.484 4a.5.5 0 0 0 .051 1h6.93a.5.5 0 1 0 0-1h-6.93a.5.5 0 0 0-.05 0zm0 3a.5.5 0 0 0 .051 1h6.93a.5.5 0 1 0 0-1h-6.93a.5.5 0 0 0-.05 0zm0 3a.5.5 0 0 0 .051 1h6.93a.5.5 0 1 0 0-1h-6.93a.5.5 0 0 0-.05 0z" style="line-height:normal;text-indent:0;text-align:start;text-decoration-line:none;text-decoration-style:solid;text-decoration-color:#000;text-transform:none;block-progression:tb;white-space:normal;isolation:auto;mix-blend-mode:normal;solid-color:#000;solid-opacity:1" color="#000" font-style="normal" font-variant="normal" font-weight="400" font-stretch="normal" font-size="medium" font-family="sans-serif" text-decoration="none" letter-spacing="normal" word-spacing="normal" direction="ltr" writing-mode="lr-tb" baseline-shift="baseline" text-anchor="start" clip-rule="nonzero" display="inline" overflow="visible" visibility="visible" opacity="1" color-interpolation="sRGB" color-interpolation-filters="linearRGB" fill="#4c4c4c" fill-opacity="1" fill-rule="evenodd" stroke="none" stroke-width="1px" stroke-linecap="round" stroke-linejoin="round" stroke-miterlimit="4" stroke-dasharray="none" stroke-dashoffset="0" stroke-opacity="1" color-rendering="auto" image-rendering="auto" shape-rendering="auto" text-rendering="auto" enable-background="accumulate" class="color000000 svgShape"></path>
</svg>
