<svg xmlns="http://www.w3.org/2000/svg" fill-rule="evenodd" stroke-linejoin="round" stroke-miterlimit="2" clip-rule="evenodd" viewBox="0 0 64 64" id="shopbag">
  <g transform="translate(-2768 -168)" fill="#b4000c" class="color000000 svgShape">
    <g transform="translate(0 .981)" fill="#b4000c" class="color000000 svgShape">
      <path d="M2812,195.268C2812.6,195.614 2813,196.26 2813,197C2813,198.104 2812.1,199 2811,199L2809,199C2807.9,199 2807,198.104 2807,197C2807,196.26 2807.4,195.614 2808,195.268L2808,191L2792,191L2792,195.268C2792.6,195.614 2793,196.26 2793,197C2793,198.104 2792.1,199 2791,199L2789,199C2787.9,199 2787,198.104 2787,197C2787,196.26 2787.4,195.614 2788,195.268L2788,191L2781.85,191C2781.85,191 2779.16,225 2779.16,225C2779.16,225 2820.84,225 2820.84,225L2818.15,191L2812,191L2812,195.268ZM2808,187L2808,181C2808,178.878 2807.16,176.843 2805.66,175.343C2804.16,173.843 2802.12,173 2800,173C2800,173 2800,173 2800,173C2797.88,173 2795.84,173.843 2794.34,175.343C2792.84,176.843 2792,178.878 2792,181L2792,187L2808,187ZM2800,169C2796.82,169 2793.76,170.264 2791.51,172.515C2789.26,174.765 2788,177.817 2788,181L2788,187L2780,187C2778.96,187 2778.09,187.802 2778.01,188.843L2775.01,226.843C2774.96,227.399 2775.15,227.948 2775.53,228.357C2775.91,228.767 2776.44,229 2777,229L2823,229C2823.56,229 2824.09,228.767 2824.47,228.357C2824.85,227.948 2825.04,227.399 2824.99,226.843L2821.99,188.843C2821.91,187.802 2821.04,187 2820,187L2812,187L2812,181C2812,177.817 2810.74,174.765 2808.49,172.515C2806.24,170.264 2803.18,169 2800,169Z" fill="#b4000c" class="color000000 svgShape"></path>
    </g>
  </g>
</svg>
